<?xml version="1.0" encoding="iso-8859-1"?>
<!-- Generator: Adobe Illustrator 18.0.0, SVG Export Plug-In . SVG Version: 6.00 Build 0)  -->
<!DOCTYPE svg PUBLIC "-//W3C//DTD SVG 1.1//EN" "http://www.w3.org/Graphics/SVG/1.1/DTD/svg11.dtd">
<svg version="1.1" id="Capa_1" xmlns="http://www.w3.org/2000/svg" xmlns:xlink="http://www.w3.org/1999/xlink" x="0px" y="0px"
	 viewBox="0 0 430 430" style="enable-background:new 0 0 430 430;" xml:space="preserve">
<path d="M406.531,207.681c-10.424-11.313-23.44-19.604-37.79-24.268c-5.624-41.617-41.38-73.811-84.515-73.811
	c-3.66,0-7.295,0.234-10.9,0.695c-21.161-23.289-51.286-36.826-83.18-36.826c-28.506,0-55.688,10.689-76.543,30.109
	c-16.08,14.969-27.266,34.057-32.478,55.008C34.986,167.376,0,208.015,0,256.667c0,55.066,44.794,99.861,99.852,99.861h2.479
	h238.936c48.928,0,88.734-39.813,88.734-88.746C430,245.44,421.668,224.097,406.531,207.681z"/></svg>
